<?xml version="1.0" encoding="utf-8"?>
<!-- Generator: Adobe Illustrator 16.0.0, SVG Export Plug-In . SVG Version: 6.00 Build 0)  -->
<!DOCTYPE svg PUBLIC "-//W3C//DTD SVG 1.1//EN" "http://www.w3.org/Graphics/SVG/1.1/DTD/svg11.dtd">
<svg version="1.1" id="Calque_1" xmlns="http://www.w3.org/2000/svg" xmlns:xlink="http://www.w3.org/1999/xlink" x="0px" y="0px"
	 width="186.193px" height="166px" viewBox="0 0 186.193 166" enable-background="new 0 0 186.193 166" xml:space="preserve">
<path fill="none" stroke="#000000" stroke-width="3" stroke-linecap="round" stroke-linejoin="round" stroke-miterlimit="10" d="
	M63.666,125.332c9.275-5.857,12.913-14.569,13.4-22.819c0,0-27.824,4.401-27.824-32.189c0,0-1.77-26.837,27.824-26.837h29.35"/>
<path fill="none" stroke="#000000" stroke-width="3" stroke-linecap="round" stroke-linejoin="round" stroke-miterlimit="10" d="
	M106.049,43.486c0,0,28.212-2.918,28.212,32.354c0,1.548-1.346,26.837-27.825,26.837H84.633c0,0-1.86,21.796-20.968,22.654"/>
<rect x="75.366" y="73.46" stroke="#000000" stroke-width="4" stroke-miterlimit="10" width="1.438" height="1.438"/>
<rect x="91.332" y="73.46" stroke="#000000" stroke-width="4" stroke-miterlimit="10" width="1.438" height="1.438"/>
<rect x="107.312" y="73.46" stroke="#000000" stroke-width="4" stroke-miterlimit="10" width="1.438" height="1.438"/>
<path fill="none" stroke="#000000" stroke-width="3" stroke-linecap="round" stroke-linejoin="round" stroke-miterlimit="10" d="
	M164.41,43.516"/>
<path fill="none" stroke="#000000" stroke-width="3" stroke-linecap="round" stroke-linejoin="round" stroke-miterlimit="10" d="
	M82.66,124.361c9.276-5.857,12.91-13.434,13.398-21.684"/>
<path fill="none" stroke="#000000" stroke-width="3" stroke-linecap="round" stroke-linejoin="round" stroke-miterlimit="10" d="
	M117.958,45.43c0,0,35.298-6.43,35.298,29.44c0,1.548-1.346,26.837-27.824,26.837l-21.927,0.971c0,0-1.737,20.825-20.845,21.684"/>
</svg>
