<?xml version="1.0" encoding="utf-8"?>
<!-- Generator: Adobe Illustrator 16.0.0, SVG Export Plug-In . SVG Version: 6.00 Build 0)  -->
<!DOCTYPE svg PUBLIC "-//W3C//DTD SVG 1.1//EN" "http://www.w3.org/Graphics/SVG/1.1/DTD/svg11.dtd">
<svg version="1.1" id="Calque_1" xmlns="http://www.w3.org/2000/svg" xmlns:xlink="http://www.w3.org/1999/xlink" x="0px" y="0px"
	 width="133.493px" height="172.491px" viewBox="0 0 133.493 172.491" enable-background="new 0 0 133.493 172.491"
	 xml:space="preserve">
<g>
	<path d="M37.37,51.841h58.805l0.559,17.672h-2.488c-1.219-5.552-2.768-9.166-4.646-10.842s-5.832-2.514-11.857-2.514h-5.789v53.219
		c0,4.007,0.626,6.49,1.879,7.45c1.252,0.96,3.994,1.591,8.227,1.894v1.93H51.741v-1.93c4.4-0.336,7.143-1.061,8.227-2.173
		c1.083-1.112,1.625-3.908,1.625-8.389v-52h-5.84c-5.756,0-9.674,0.83-11.756,2.488c-2.082,1.659-3.648,5.281-4.697,10.867H36.76
		L37.37,51.841z"/>
</g>
</svg>
